<svg width="129" height="93" viewBox="0 0 129 93" fill="none" xmlns="http://www.w3.org/2000/svg">
<path d="M3.96875 55.25C2.61458 55.25 1.9375 54.5729 1.9375 53.2188V49.0938C1.9375 47.9062 2.25 46.875 2.875 46L20.1875 21.625C20.9583 20.5417 21.9271 20 23.0938 20H27.6875C29.0625 20 29.75 20.6771 29.75 22.0312V47.5H33.5312C34.8854 47.5 35.5625 48.1771 35.5625 49.5312V53.2188C35.5625 54.5729 34.8958 55.25 33.5625 55.25H29.75V62.9688C29.75 64.3229 29.0729 65 27.7188 65H23.0312C21.6771 65 21 64.3229 21 62.9688V55.25H3.96875ZM10.6562 47.5H21V35.4062C21 34.5729 21.0417 33.7396 21.125 32.9062H21L10.6562 47.5Z" fill="black"/>
<path d="M94.9688 54.25C93.6146 54.25 92.9375 53.5729 92.9375 52.2188V48.0938C92.9375 46.9062 93.25 45.875 93.875 45L111.188 20.625C111.958 19.5417 112.927 19 114.094 19H118.688C120.062 19 120.75 19.6771 120.75 21.0312V46.5H124.531C125.885 46.5 126.562 47.1771 126.562 48.5312V52.2188C126.562 53.5729 125.896 54.25 124.562 54.25H120.75V61.9688C120.75 63.3229 120.073 64 118.719 64H114.031C112.677 64 112 63.3229 112 61.9688V54.25H94.9688ZM101.656 46.5H112V34.4062C112 33.5729 112.042 32.7396 112.125 31.9062H112L101.656 46.5Z" fill="black"/>
<g clip-path="url(#clip0_95_33)">
<path fill-rule="evenodd" clip-rule="evenodd" d="M64.5 18.5783C51.5199 18.5783 41 29.0982 41 42.0783C41 52.4789 47.7287 61.2639 57.0645 64.3758C58.2395 64.5777 58.6801 63.8801 58.6801 63.2558C58.6801 62.6959 58.6525 60.8508 58.6525 58.8771C52.75 59.9603 51.217 57.4359 50.7488 56.1141C50.4826 55.4348 49.3352 53.351 48.3438 52.791C47.5176 52.3504 46.3426 51.2672 48.3162 51.2305C50.1705 51.2029 51.4924 52.9379 51.933 53.6355C54.0443 57.1881 57.4225 56.1875 58.7811 55.5724C58.983 54.0486 59.6072 53.0205 60.2773 52.433C55.0449 51.8455 49.583 49.8168 49.583 40.8299C49.583 38.2779 50.4918 36.1574 51.9881 34.5142C51.7494 33.9267 50.9324 31.5217 52.2268 28.2904C52.2268 28.2904 54.1912 27.6754 58.6893 30.6955C60.5711 30.1631 62.5631 29.906 64.5643 29.906C66.5654 29.906 68.5574 30.1723 70.4393 30.6955C74.9373 27.6387 76.9018 28.2904 76.9018 28.2904C78.1961 31.5217 77.3699 33.9267 77.1404 34.5142C78.6367 36.1574 79.5455 38.2412 79.5455 40.8299C79.5455 49.8443 74.0561 51.8455 68.8236 52.433C69.6773 53.1674 70.4117 54.581 70.4117 56.7842C70.4117 59.9236 70.3842 62.4572 70.3842 63.2467C70.3842 63.8617 70.8248 64.5961 71.9998 64.3666C81.2713 61.2639 88 52.4514 88 42.0783C88 29.0982 77.4801 18.5783 64.5 18.5783Z" fill="#1B1F23"/>
</g>
<defs>
<clipPath id="clip0_95_33">
<rect width="47" height="47" fill="white" transform="translate(41 18)"/>
</clipPath>
</defs>
</svg>
