<svg width="199" height="211" viewBox="0 0 199 211" fill="none" xmlns="http://www.w3.org/2000/svg">
<rect width="12" height="77" fill="#242424"/>
<rect y="102" width="12" height="109" fill="#242424"/>
<rect x="186" width="13" height="211" fill="#242424"/>
<rect x="186" width="13" height="174" transform="rotate(90 186 0)" fill="#242424"/>
<rect x="186" y="198" width="13" height="174" transform="rotate(90 186 198)" fill="#242424"/>
<rect x="36" y="165" width="9" height="24" transform="rotate(90 36 165)" fill="#242424"/>
<rect x="78" y="165" width="9" height="27" transform="rotate(90 78 165)" fill="#242424"/>
<rect x="186" y="129" width="9" height="98" transform="rotate(90 186 129)" fill="#242424"/>
<rect x="135" y="52" width="9" height="47" transform="rotate(90 135 52)" fill="#242424"/>
<rect x="78" y="52" width="9" height="27" transform="rotate(90 78 52)" fill="#242424"/>
<rect x="36" y="52" width="9" height="24" transform="rotate(90 36 52)" fill="#242424"/>
<rect x="78" y="165" width="10" height="33" fill="#242424"/>
<rect x="78" y="104" width="10" height="42" fill="#242424"/>
<rect x="78" y="13" width="10" height="71" fill="#242424"/>
<rect x="9" y="76.6075" width="3.68763" height="23.2843" transform="rotate(-45 9 76.6075)" fill="#242424"/>
</svg>
