<svg width="31" height="57" viewBox="0 0 31 57" fill="none" xmlns="http://www.w3.org/2000/svg">
<path d="M15.3936 0.150391C19.5634 0.150614 23.3711 3.25146 26.1455 8.33789C28.9169 13.4188 30.6357 20.448 30.6357 28.2207C30.6357 35.9934 28.9169 43.0226 26.1455 48.1035C23.3711 53.1899 19.5634 56.2908 15.3936 56.291C11.2235 56.291 7.41514 53.1901 4.64062 48.1035C1.86925 43.0226 0.150393 35.9934 0.150391 28.2207C0.150391 20.448 1.86925 13.4188 4.64062 8.33789C7.41514 3.25128 11.2235 0.150391 15.3936 0.150391Z" fill="#D9D9D9" stroke="black" stroke-width="0.3"/>
<rect x="11.9029" y="33.5284" width="12.5276" height="7.39655" transform="rotate(11.4171 11.9029 33.5284)" fill="#E4E4E4" stroke="black" stroke-width="0.3"/>
<rect x="10.708" y="32.7757" width="12.5276" height="7.39655" transform="rotate(-5.74857 10.708 32.7757)" fill="#4E4040" stroke="black" stroke-width="0.3"/>
<rect x="9.9345" y="15.6931" width="12.5276" height="7.39655" transform="rotate(-17.8044 9.9345 15.6931)" fill="#5A7185" stroke="black" stroke-width="0.3"/>
</svg>
