<svg width="72" height="71" viewBox="0 0 72 71" fill="none" xmlns="http://www.w3.org/2000/svg">
<rect x="5.54169" y="47.3243" width="9.47451" height="11.4294" transform="rotate(-33.3381 5.54169 47.3243)" fill="#D9D9D9" stroke="black" stroke-width="0.3"/>
<path d="M3.35968 45.8911C4.1914 45.3503 5.4185 45.5159 6.76765 46.3071C8.10827 47.0933 9.52561 48.4748 10.6931 50.2694C11.8606 52.0642 12.5495 53.9205 12.7249 55.4648C12.9012 57.0186 12.5553 58.2078 11.7238 58.7489C10.8922 59.2899 9.66428 59.1246 8.31506 58.3334C6.97437 57.5471 5.5574 56.1645 4.38988 54.3697C3.22247 52.5751 2.53324 50.72 2.35785 49.1757C2.18132 47.6214 2.52794 46.4322 3.35968 45.8911Z" fill="#D9D9D9" stroke="black" stroke-width="0.3"/>
<path d="M12.1814 40.1118C13.5791 39.2026 15.3582 39.1456 17.1168 39.8115C18.8752 40.4775 20.6021 41.8633 21.8725 43.8162C23.1429 45.7691 23.7099 47.9095 23.6059 49.787C23.5019 51.6644 22.7287 53.2678 21.331 54.177C19.9334 55.086 18.1542 55.1433 16.3957 54.4773C14.6373 53.8114 12.9112 52.4249 11.6408 50.4721C10.3704 48.5193 9.80264 46.3793 9.90653 44.5019C10.0105 42.6244 10.7839 41.0211 12.1814 40.1118Z" fill="#D9D9D9" stroke="black" stroke-width="0.3"/>
<rect x="47.4134" y="65.5166" width="9.47451" height="11.4294" transform="rotate(-127.621 47.4134 65.5166)" fill="#D9D9D9" stroke="black" stroke-width="0.3"/>
<path d="M46.1472 67.7995C45.5458 67.0105 45.6193 65.7745 46.3076 64.37C46.9915 62.9744 48.2632 61.4579 49.9656 60.1596C51.6682 58.8613 53.4679 58.0358 54.9948 57.7455C56.5311 57.4536 57.7428 57.7098 58.3444 58.4985C58.9461 59.2874 58.8729 60.5242 58.1847 61.9288C57.5008 63.3244 56.2278 64.8407 54.5253 66.139C52.8228 67.4372 51.0243 68.263 49.4975 68.5533C47.9608 68.8454 46.7489 68.5885 46.1472 67.7995Z" fill="#D9D9D9" stroke="black" stroke-width="0.3"/>
<path d="M39.7253 59.434C38.7143 58.1082 38.5246 56.3382 39.0573 54.5349C39.59 52.7316 40.843 50.9061 42.6956 49.4934C44.5482 48.0807 46.6402 47.3554 48.5202 47.3189C50.4002 47.2824 52.0569 47.9337 53.0679 49.2596C54.0788 50.5855 54.2687 52.3554 53.736 54.1587C53.2032 55.9619 51.9495 57.7868 50.097 59.1994C48.2445 60.6121 46.1529 61.3381 44.273 61.3747C42.393 61.4113 40.7364 60.7597 39.7253 59.434Z" fill="#D9D9D9" stroke="black" stroke-width="0.3"/>
<rect x="25.8645" y="5.53979" width="9.47451" height="11.4294" transform="rotate(56.4735 25.8645 5.53979)" fill="#D9D9D9" stroke="black" stroke-width="0.3"/>
<path d="M27.2904 3.35307C27.834 4.183 27.6724 5.41064 26.8856 6.76238C26.1038 8.10559 24.7271 9.52746 22.9363 10.7008C21.1453 11.8743 19.2913 12.5692 17.7476 12.7497C16.1943 12.9312 15.0041 12.5891 14.4602 11.7595C13.9165 10.9296 14.0777 9.70114 14.8645 8.34932C15.6463 7.00606 17.0243 5.58455 18.8152 4.41114C20.606 3.23783 22.4589 2.54251 24.0025 2.36204C25.5562 2.1804 26.7466 2.52311 27.2904 3.35307Z" fill="#D9D9D9" stroke="black" stroke-width="0.3"/>
<path d="M33.0987 12.1557C34.0125 13.5504 34.0753 15.3294 33.4152 17.0901C32.755 18.8507 31.3749 20.5821 29.4262 21.8589C27.4774 23.1357 25.339 23.7098 23.4611 23.612C21.5834 23.5141 19.9774 22.7462 19.0636 21.3515C18.15 19.9569 18.0869 18.1779 18.7471 16.4172C19.4073 14.6566 20.788 12.926 22.7367 11.6492C24.6853 10.3724 26.8234 9.79757 28.7012 9.89529C30.5789 9.99305 32.1848 10.7612 33.0987 12.1557Z" fill="#D9D9D9" stroke="black" stroke-width="0.3"/>
<rect x="65.8843" y="25.2353" width="9.47451" height="11.4294" transform="rotate(149.3 65.8843 25.2353)" fill="#D9D9D9" stroke="black" stroke-width="0.3"/>
<path d="M67.9981 26.7674C67.1424 27.2693 65.9242 27.0475 64.6129 26.195C63.3099 25.3479 61.9576 23.9026 60.874 22.0562C59.7903 20.2096 59.1877 18.3235 59.0836 16.7728C58.9789 15.2124 59.3792 14.0405 60.2347 13.5382C61.0904 13.0361 62.3094 13.2577 63.6207 14.1102C64.9238 14.9573 66.2756 16.4037 67.3593 18.2503C68.4428 20.0968 69.0459 21.9817 69.1501 23.5324C69.2549 25.0931 68.8539 26.2652 67.9981 26.7674Z" fill="#D9D9D9" stroke="black" stroke-width="0.3"/>
<path d="M58.9197 32.1344C57.4816 32.9783 55.7017 32.9533 53.9757 32.2072C52.2498 31.461 50.5886 29.9972 49.4094 27.9878C48.2303 25.9785 47.7624 23.8143 47.9526 21.9436C48.143 20.073 48.9892 18.5068 50.4272 17.6629C51.8653 16.8192 53.6452 16.844 55.3711 17.5901C57.097 18.3363 58.7575 19.8008 59.9366 21.81C61.1157 23.8193 61.5844 25.9831 61.3942 27.8537C61.204 29.7244 60.3575 31.2904 58.9197 32.1344Z" fill="#D9D9D9" stroke="black" stroke-width="0.3"/>
<circle cx="35.4405" cy="36.6544" r="23.3088" fill="#585050" stroke="black" stroke-width="0.3"/>
</svg>
