<svg width="26" height="75" viewBox="0 0 26 75" fill="none" xmlns="http://www.w3.org/2000/svg">
<rect x="0.15" y="0.15" width="25.7" height="74.7" fill="#767171" stroke="black" stroke-width="0.3"/>
<rect x="7.1788" y="10.0133" width="12.5276" height="7.39655" transform="rotate(11.4171 7.1788 10.0133)" fill="#F3F3F3" stroke="black" stroke-width="0.3"/>
<rect x="5.98382" y="9.26047" width="12.5276" height="7.39655" transform="rotate(-5.74857 5.98382 9.26047)" fill="#54556F" stroke="black" stroke-width="0.3"/>
<rect x="10.5203" y="31.083" width="20.092" height="7.39655" transform="rotate(89.2295 10.5203 31.083)" fill="#F3F3F3" stroke="black" stroke-width="0.3"/>
<rect x="21.1439" y="25.952" width="28.6587" height="2.62666" transform="rotate(89.2295 21.1439 25.952)" fill="#F3F3F3" stroke="black" stroke-width="0.3"/>
<path d="M10.1435 57.1983C10.7876 57.0219 11.4066 57.0211 11.8843 57.1549C12.3653 57.2896 12.6761 57.5506 12.7662 57.8793C12.8562 58.208 12.7217 58.5909 12.3765 58.952C12.0336 59.3105 11.5007 59.6252 10.8565 59.8016C10.2124 59.9781 9.59345 59.9789 9.11574 59.8451C8.63472 59.7103 8.3239 59.4494 8.23387 59.1207C8.14384 58.792 8.27829 58.409 8.62352 58.048C8.96638 57.6894 9.49937 57.3747 10.1435 57.1983Z" fill="#F3F3F3" stroke="black" stroke-width="0.3"/>
</svg>
