<svg width="30" height="41" viewBox="0 0 30 41" fill="none" xmlns="http://www.w3.org/2000/svg">
<path d="M15 0.150391C18.5205 0.150391 21.7292 2.40085 24.0654 6.08496C26.4005 9.76722 27.8496 14.8632 27.8496 20.5C27.8496 26.1368 26.4005 31.2328 24.0654 34.915C21.7292 38.5991 18.5205 40.8496 15 40.8496C11.4795 40.8496 8.27083 38.5991 5.93457 34.915C3.59951 31.2328 2.15039 26.1368 2.15039 20.5C2.15039 14.8632 3.59951 9.76722 5.93457 6.08496C8.27083 2.40085 11.4795 0.150391 15 0.150391Z" fill="#D9D9D9" stroke="black" stroke-width="0.3"/>
<path d="M15 12.1504C17.1522 12.1504 19.1111 13.2946 20.5371 15.166C21.9632 17.0377 22.8496 19.6304 22.8496 22.5C22.8496 25.3696 21.9632 27.9623 20.5371 29.834C19.1111 31.7054 17.1522 32.8496 15 32.8496C12.8478 32.8496 10.8889 31.7054 9.46289 29.834C8.03681 27.9623 7.15039 25.3696 7.15039 22.5C7.15039 19.6304 8.03681 17.0377 9.46289 15.166C10.8889 13.2946 12.8478 12.1504 15 12.1504Z" fill="#EEEEEE" stroke="black" stroke-width="0.3"/>
<path d="M15 12.1504C15.7706 12.1504 16.4794 12.5663 17.001 13.2617C17.5226 13.9572 17.8496 14.9247 17.8496 16C17.8496 17.0753 17.5226 18.0428 17.001 18.7383C16.4794 19.4337 15.7706 19.8496 15 19.8496C14.2294 19.8496 13.5206 19.4337 12.999 18.7383C12.4774 18.0428 12.1504 17.0753 12.1504 16C12.1504 14.9247 12.4774 13.9572 12.999 13.2617C13.5206 12.5663 14.2294 12.1504 15 12.1504Z" fill="#5997DD" stroke="black" stroke-width="0.3"/>
<rect x="29.85" y="9.85" width="29.7" height="9.7" rx="0.85" transform="rotate(180 29.85 9.85)" fill="#D9D9D9" stroke="black" stroke-width="0.3"/>
</svg>
